<?xml version="1.0" encoding="UTF-8"?>
<svg id="Calque_2" data-name="Calque 2" xmlns="http://www.w3.org/2000/svg" viewBox="0 0 296.51 61.89">
  <defs>
    <style>
      .cls-1 {
        fill: #fff;
        stroke-width: 0px;
      }
    </style>
  </defs>
  <g id="Calque_1-2" data-name="Calque 1">
    <g>
      <path class="cls-1" d="m34.03,44.83c.18-.02.35.02.5.14.16.12.24.28.25.47.01.19-.04.37-.16.54-1.27,1.56-2.62,2.34-4.03,2.34h-.14c-.5,0-1.01-.1-1.51-.31-.5-.2-1.03-.53-1.57-.97-.54-.45-1.01-.87-1.42-1.28s-.92-1.01-1.53-1.8c-.61-.79-1.1-1.43-1.46-1.91-.36-.48-.89-1.22-1.58-2.23-1.01-1.39-1.79-2.47-2.36-3.24-.56-.77-1.33-1.71-2.29-2.84-.96-1.13-1.87-2.06-2.74-2.81-1.46.36-2.9.53-4.32.5-2.93,11.98-4.62,19.58-5.08,22.82.07-.17.16-.36.25-.58.07-.17.2-.29.38-.36s.36-.07.54.02.3.22.36.4c.06.18.05.35-.02.52-.24.55-.45,1-.63,1.33s-.35.64-.52.9c-.17.26-.33.46-.49.58-.16.12-.32.18-.49.18-.1,0-.19-.02-.29-.07-.22-.07-.37-.2-.47-.38s-.14-.56-.14-1.15.1-1.44.29-2.54c.19-1.1.49-2.6.88-4.5.4-1.89.92-4.25,1.57-7.05.65-2.81,1.46-6.22,2.45-10.22-1.22-.14-2.2-.46-2.92-.94s-1.18-1.03-1.37-1.66c-.29-.84-.07-1.54.65-2.09,1.03-.82,2.63-.84,4.79-.07.31-1.22.61-2.46.9-3.71,2.06-8.4,3.37-13.82,3.92-16.27.05-.19.15-.34.31-.45.16-.11.33-.14.52-.09s.34.15.43.3c.1.16.13.33.11.52-.55,2.47-1.86,7.91-3.92,16.31-.46,1.78-.78,3.1-.97,3.96.6.29,1.21.61,1.84.97.58.36,1.16.78,1.76,1.26,2.64-.74,5.22-2.09,7.74-4.03,2.52-1.94,4.74-4.55,6.66-7.81,1.54-2.59,2.48-5.08,2.84-7.45.36-2.38.08-4.31-.83-5.79-1.37-2.16-3.97-3.11-7.81-2.84-1.9.12-3.89.52-5.98,1.21s-4.04,1.54-5.85,2.57c-1.81,1.03-3.47,2.22-4.97,3.56-1.5,1.34-2.65,2.71-3.44,4.1-1.54,2.69-1.69,5.24-.47,7.67.07.17.08.34.02.52s-.17.31-.34.4-.34.1-.52.04c-.18-.06-.32-.17-.41-.34-1.44-2.88-1.27-5.87.5-8.96,1.15-2.02,2.89-3.92,5.2-5.72,2.32-1.8,4.91-3.28,7.78-4.43S20.12.23,22.86.04c4.39-.29,7.4.89,9.04,3.53,1.06,1.71,1.41,3.87,1.06,6.5s-1.36,5.36-3.04,8.19c-2.26,3.84-5.15,6.96-8.68,9.36-1.82,1.27-3.71,2.23-5.65,2.88.79.74,1.64,1.66,2.54,2.74.9,1.08,1.62,1.99,2.16,2.72.54.73,1.28,1.76,2.21,3.08.77,1.05,1.34,1.85,1.73,2.39.38.54.91,1.22,1.58,2.05s1.23,1.45,1.67,1.85c.44.41.94.77,1.49,1.1.55.32,1.06.5,1.51.52,1.01.02,2.04-.6,3.1-1.87.12-.14.27-.23.45-.25ZM5.29,28.34c.07.24.24.47.5.68.26.22.64.41,1.13.6.49.18,1.05.3,1.67.38.17-.67.34-1.34.5-2.02-.98-.38-1.8-.58-2.45-.58-.5,0-.9.11-1.19.32-.19.17-.25.37-.18.61Zm4.72,1.69c.84,0,1.69-.08,2.56-.25-.24-.17-.48-.32-.72-.47-.46-.26-.95-.53-1.48-.79-.17.7-.29,1.2-.36,1.51Z"/>
      <path class="cls-1" d="m45.98,28.21c.18-.06.35-.05.52.04s.28.22.34.4c.06.18.05.35-.02.52-2.57,5.3-4.86,7.96-6.88,7.96-.12,0-.25-.01-.4-.04-1.61-.31-2.6-2.47-2.99-6.48-1.18,1.58-2.22,2.88-3.13,3.89-.82.86-1.51,1.16-2.09.9-.58-.22-.85-.84-.83-1.87,0-.86.19-1.89.58-3.1.38-1.2.95-2.36,1.69-3.49.74-1.13,1.55-1.84,2.41-2.12,1.27-.46,2.45-.04,3.53,1.26.12.14.17.31.16.5-.01.19-.09.35-.23.47-.14.12-.31.17-.5.16s-.35-.09-.47-.23c-.84-1.01-1.69-1.2-2.56-.58-.98.7-1.81,1.95-2.47,3.76-.66,1.81-.92,3.1-.77,3.87.14-.12.31-.28.5-.47.96-1.03,2.14-2.51,3.53-4.43.31-.43.53-.73.65-.9.19-.24.44-.32.76-.23.31.08.48.29.5.63.05,1.18.14,2.22.29,3.13.14.91.29,1.6.43,2.07.14.47.31.86.5,1.17.19.31.34.51.45.59.11.08.22.13.34.13.34.07.76-.09,1.28-.49.52-.4,1.18-1.16,1.98-2.3.8-1.14,1.63-2.59,2.47-4.34.1-.19.23-.32.41-.38Z"/>
      <path class="cls-1" d="m55.4,2.53c.5.74.26,2.5-.74,5.28-1,2.77-2.61,5.93-4.84,9.49-.02.02-.05.05-.07.07-1.51,6.05-2.96,12.36-4.34,18.92-1.38,6.56-2.26,11.24-2.65,14.02h.07c.19.07.33.19.41.36.08.17.09.35.02.54-.14.41-.26.71-.34.92-.08.2-.21.4-.38.59-.17.19-.35.29-.54.29-.07,0-.16-.01-.25-.04-.33-.12-.52-.45-.54-.99-.02-.54.14-1.87.5-3.98.43-2.59,1.08-5.98,1.94-10.15,1.99-9.5,3.97-17.97,5.94-25.42.17-.62.35-1.28.54-1.96.19-.68.47-1.54.83-2.57.36-1.03.71-1.94,1.06-2.72.35-.78.74-1.47,1.17-2.09.43-.61.84-.94,1.22-.99.41-.07.73.07.97.43Zm-4.39,10.01c1.92-3.62,3-6.47,3.24-8.53-1.06,1.58-2.14,4.43-3.24,8.53Z"/>
      <path class="cls-1" d="m57.99,22.9c.72.22,1.2.79,1.44,1.71.24.93.2,2-.11,3.22-.58,2.11-1.99,4.07-4.25,5.87-.94.77-1.97,1.44-3.1,2.02-.86,3.53-1.83,7.91-2.9,13.16-1.07,5.24-1.85,9.39-2.36,12.44-.07.38-.3.58-.68.58h-.11c-.12-.03-.23-.07-.32-.14s-.17-.17-.22-.29c-.05-.12-.06-.24-.04-.36.62-4.2,2-12.31,4.14-24.34-.29.1-.58.18-.86.25-.19.07-.37.06-.54-.04-.17-.1-.28-.24-.32-.43-.05-.19-.02-.37.07-.54.1-.17.24-.28.43-.32.48-.12.97-.29,1.48-.5.17-.84.4-2.09.68-3.74,1.25-7.01,1.88-10.67,1.91-10.98,0-.19.07-.36.2-.49.13-.13.28-.2.45-.2.19-.02.36.03.5.16.14.13.23.29.25.49,0,.19-.56,3.46-1.69,9.79.36-1.01.73-1.92,1.1-2.74.37-.82.72-1.49,1.04-2.02.32-.53.65-.97.99-1.33.34-.36.64-.63.9-.81.26-.18.52-.31.77-.4.25-.08.47-.12.65-.11s.34.04.49.09Zm0,4.57c.22-.94.27-1.69.16-2.27-.11-.58-.29-.9-.56-.97-.02-.02-.06-.04-.11-.04-.14,0-.31.05-.49.16-.18.11-.41.31-.7.61s-.58.68-.88,1.15c-.3.47-.64,1.11-1.01,1.93-.37.82-.74,1.75-1.1,2.81-.24.72-.53,1.73-.86,3.03,1.37-.84,2.55-1.81,3.55-2.92,1-1.1,1.66-2.27,2-3.49Z"/>
      <path class="cls-1" d="m77.25,27.94c.19-.05.37-.02.52.07.16.1.26.24.31.43.05.19.02.37-.07.54-.79,1.27-1.55,2.41-2.27,3.4s-1.34,1.8-1.85,2.41c-.52.61-1.01,1.13-1.49,1.55-.48.42-.86.72-1.15.9s-.58.3-.86.36c-.29.06-.49.08-.59.07-.11-.01-.23-.03-.38-.05-1.13-.29-1.76-1.57-1.91-3.85-.02-.5-.08-.93-.18-1.28-.1-.35-.18-.58-.25-.68s-.13-.16-.18-.16h-.04c-.19,0-.46.15-.79.45-.34.3-.74.79-1.22,1.46s-.98,1.49-1.51,2.45c-.53.96-1.11,2.17-1.75,3.64-.64,1.46-1.25,3.05-1.85,4.75-.1.31-.31.47-.65.47h-.14c-.12-.02-.22-.07-.31-.14-.08-.07-.15-.16-.2-.27-.05-.11-.06-.21-.04-.31.05-.98.68-4.15,1.89-9.49s2.21-9.63,2.99-12.89c.78-3.25,1.39-5.74,1.82-7.47.82-3.31,1.76-6.14,2.83-8.48,1.07-2.34,1.99-3.58,2.75-3.73.41-.07.72.05.94.36.53.72.22,2.58-.92,5.58-1.14,3-2.91,6.67-5.31,11.02-1.85,7.61-3.28,13.71-4.28,18.32,1.06-2.23,2.1-4,3.13-5.31,1.03-1.31,1.98-1.9,2.84-1.78,1.08.14,1.68,1.27,1.8,3.38.12,1.61.41,2.47.86,2.59.07.02.17.02.31,0s.4-.17.81-.43c.41-.26.85-.65,1.33-1.17.48-.52,1.13-1.33,1.96-2.43s1.72-2.44,2.68-4c.1-.14.24-.24.43-.29Zm-6.84-23.83c-1.32,1.9-2.56,5.03-3.71,9.4,2.11-4.25,3.35-7.38,3.71-9.4Z"/>
      <path class="cls-1" d="m129.67,10.73c.26,1.56.04,3.92-.67,7.09-.71,3.17-1.72,6.49-3.02,9.97-1.31,3.48-2.98,6.9-5.02,10.26-2.04,3.36-4.13,5.89-6.26,7.6-1.68,1.34-3.1,1.73-4.25,1.15-.65-.31-1.17-.88-1.57-1.71-.4-.83-.68-1.97-.85-3.42-.17-1.45-.27-2.87-.31-4.27-.04-1.39-.03-3.2.02-5.44.05-4.13-.06-6.5-.32-7.13-.34.31-.82,1.01-1.44,2.09-5.21,9.27-9.26,16.01-12.17,20.23-1.42,2.04-2.54,3.47-3.37,4.29-.83.81-1.49,1.22-2,1.22-.17,0-.34-.04-.5-.11-.24-.12-.43-.28-.56-.49s-.22-.6-.25-1.19.03-1.35.2-2.29c.17-.94.47-2.24.92-3.9.44-1.67,1.03-3.65,1.75-5.96,1.99-6.21,4.88-14.27,8.68-24.16.53-1.37,1.03-2.63,1.51-3.78s.9-2.13,1.26-2.93c.36-.8.71-1.53,1.04-2.16.34-.64.62-1.15.85-1.55.23-.4.46-.73.68-1.01.23-.28.41-.47.54-.59.13-.12.28-.2.43-.25.16-.05.26-.07.32-.07s.15.01.27.04c.31.07.55.27.72.6.17.32.26.74.27,1.26.01.52,0,1.12-.05,1.82,0,.19-.07.35-.22.47-.14.12-.31.17-.5.16-.19-.01-.35-.09-.47-.23-.12-.14-.18-.31-.18-.5.05-.84.05-1.48,0-1.91-1.1,1.37-2.83,5.09-5.18,11.16-1.22,3.22-2.36,6.24-3.4,9.07s-1.94,5.32-2.68,7.45c-.74,2.13-1.42,4.12-2.02,5.94-.6,1.82-1.09,3.37-1.46,4.62-.37,1.26-.69,2.41-.95,3.44-.26,1.03-.46,1.86-.59,2.48-.13.62-.23,1.17-.29,1.64-.06.47-.08.8-.07,1.01.01.2.03.37.05.49.84-.41,2.38-2.28,4.61-5.62,2.86-4.22,6.73-10.68,11.63-19.37.65-1.15,1.2-1.94,1.66-2.38.46-.43.91-.59,1.37-.47.62.17,1.01.85,1.15,2.03.14,1.19.19,3.38.14,6.57-.05,1.22-.05,2.58-.02,4.07s.1,2.89.18,4.19c.08,1.31.28,2.46.58,3.44.3.98.7,1.6,1.21,1.84.62.31,1.55-.01,2.77-.97,2.02-1.61,4-4.03,5.96-7.27,1.96-3.24,3.58-6.55,4.86-9.92,1.28-3.37,2.27-6.59,2.97-9.65.7-3.06.92-5.32.68-6.79-.1-.62-.26-.97-.5-1.04-.34-.12-.91.19-1.73.94-.14.12-.31.18-.5.16-.19-.01-.35-.09-.49-.23-.13-.14-.19-.31-.18-.5.01-.19.09-.35.23-.47,1.25-1.1,2.29-1.51,3.13-1.22.74.26,1.21.98,1.4,2.16Z"/>
      <path class="cls-1" d="m143.58,28.21c.18-.06.35-.05.52.04s.28.22.34.4c.06.18.05.35-.02.52-2.57,5.3-4.86,7.96-6.88,7.96-.12,0-.25-.01-.4-.04-1.61-.31-2.6-2.47-2.99-6.48-1.18,1.58-2.22,2.88-3.13,3.89-.82.86-1.51,1.16-2.09.9-.58-.22-.85-.84-.83-1.87,0-.86.19-1.89.58-3.1.38-1.2.95-2.36,1.69-3.49.74-1.13,1.55-1.84,2.41-2.12,1.27-.46,2.45-.04,3.53,1.26.12.14.17.31.16.5-.01.19-.09.35-.23.47-.14.12-.31.17-.5.16s-.35-.09-.47-.23c-.84-1.01-1.69-1.2-2.56-.58-.98.7-1.81,1.95-2.47,3.76-.66,1.81-.92,3.1-.77,3.87.14-.12.31-.28.5-.47.96-1.03,2.14-2.51,3.53-4.43.31-.43.53-.73.65-.9.19-.24.44-.32.76-.23.31.08.48.29.5.63.05,1.18.14,2.22.29,3.13.14.91.29,1.6.43,2.07.14.47.31.86.5,1.17.19.31.34.51.45.59.11.08.22.13.34.13.34.07.76-.09,1.28-.49.52-.4,1.18-1.16,1.98-2.3.8-1.14,1.63-2.59,2.47-4.34.1-.19.23-.32.41-.38Z"/>
      <path class="cls-1" d="m152.99,2.53c.5.74.26,2.5-.74,5.28-1,2.77-2.61,5.93-4.84,9.49-.02.02-.05.05-.07.07-1.51,6.05-2.96,12.36-4.34,18.92-1.38,6.56-2.26,11.24-2.65,14.02h.07c.19.07.33.19.41.36.08.17.09.35.02.54-.14.41-.26.71-.34.92-.08.2-.21.4-.38.59-.17.19-.35.29-.54.29-.07,0-.16-.01-.25-.04-.33-.12-.52-.45-.54-.99-.02-.54.14-1.87.5-3.98.43-2.59,1.08-5.98,1.94-10.15,1.99-9.5,3.97-17.97,5.94-25.42.17-.62.35-1.28.54-1.96.19-.68.47-1.54.83-2.57.36-1.03.71-1.94,1.06-2.72.35-.78.74-1.47,1.17-2.09.43-.61.84-.94,1.22-.99.41-.07.73.07.97.43Zm-4.39,10.01c1.92-3.62,3-6.47,3.24-8.53-1.06,1.58-2.14,4.43-3.24,8.53Z"/>
      <path class="cls-1" d="m163.25,6.2c.62.62.31,2.83-.94,6.62-.1.29-.23.68-.4,1.19-.53,1.61-.96,2.89-1.3,3.85-.34.96-.86,2.3-1.58,4.03-.72,1.73-1.5,3.38-2.34,4.97-.7,3.31-1.36,6.84-1.98,10.59-1.08,6.41-1.66,10.75-1.73,13.03.19-.07.38-.07.58,0,.17.1.28.23.34.41.06.18.05.35-.02.52-.43.91-.86,1.37-1.3,1.37-.1,0-.19-.01-.29-.04-.26-.1-.45-.27-.56-.52-.11-.25-.16-.78-.14-1.58.01-.8.11-1.99.31-3.55.29-2.5.77-5.78,1.44-9.86.38-2.23.78-4.4,1.19-6.52-.74,1.2-1.54,2.4-2.38,3.6-1.58,2.3-2.96,3.13-4.14,2.48-.77-.55-1.14-1.53-1.12-2.93.02-1.4.37-2.83,1.04-4.27.79-1.68,1.73-2.92,2.81-3.71,1.08-.79,2.04-1.06,2.88-.81s1.32.88,1.44,1.89c.12-.19.23-.38.32-.58,1.27-6.02,2.55-10.87,3.83-14.53s2.33-5.62,3.15-5.89c.34-.12.62-.05.86.22Zm-12.2,27.32c1.13-1.63,2.16-3.26,3.1-4.89-.36-.12-.5-.36-.43-.72.1-.89-.06-1.39-.47-1.51h-.22c-.5,0-1.12.33-1.85.99-.73.66-1.39,1.6-1.96,2.83-.38.79-.64,1.6-.77,2.43s-.16,1.5-.09,2.02.2.82.4.92c.07.05.19.04.34-.02.16-.06.41-.26.77-.61.36-.35.76-.82,1.19-1.42Zm9.94-21.13c.48-1.46.83-2.71,1.04-3.74-1.18,2.47-2.44,6.32-3.78,11.56.67-1.63,1.45-3.83,2.34-6.59.17-.53.3-.94.4-1.22Z"/>
      <path class="cls-1" d="m171.68,28.27c.19-.02.37.03.52.14.16.12.25.28.27.47.02.19-.02.36-.14.5-.98,1.27-2.16,2.27-3.53,2.99-1.37.72-2.65.95-3.85.68-.34.82-.8,1.46-1.4,1.93s-1.22.7-1.87.7h-.04c-.65-.02-1.22-.25-1.71-.67s-.83-1-1.03-1.75c-.31-1.18-.26-2.3.16-3.37.42-1.07,1.03-1.85,1.82-2.36.17-.12.36-.14.58-.07.22-.53.52-.94.92-1.22.4-.29.81-.4,1.24-.32.24.05.46.15.67.31.2.16.41.4.61.74.2.34.35.85.45,1.55.1.7.12,1.53.07,2.48-.02.24-.06.48-.11.72.91.19,1.93-.04,3.04-.68,1.12-.65,2.07-1.49,2.86-2.52.12-.14.28-.23.47-.25Zm-10.01,6.01c.34,0,.69-.15,1.06-.47s.68-.73.92-1.26c-1.56-.87-2.38-2.04-2.45-3.53-.48.46-.81,1.07-.99,1.84-.18.77-.17,1.44.02,2.02.26.94.74,1.4,1.44,1.4Zm2.34-3.35c.05-.58.05-1.07.02-1.49-.04-.42-.08-.76-.13-1.03-.05-.26-.11-.48-.18-.65-.07-.17-.14-.29-.2-.36-.06-.07-.1-.11-.13-.11h-.04c-.1,0-.22.08-.36.23-.14.16-.25.37-.32.63-.14.5-.12,1.02.07,1.55.19.53.61,1.01,1.26,1.44v-.22Z"/>
      <path class="cls-1" d="m220.24,1.52c.19,0,.35.07.49.2.13.13.2.29.2.49,0,.12-.03.23-.09.34-.06.11-.14.19-.25.25-.11.06-.22.09-.34.09-2.76.05-6.06.35-9.9.92-3.84.56-7.55,1.29-11.12,2.18-.48,2.02-1.39,5.57-2.74,10.66-1.06,4.03-1.84,7.08-2.34,9.14,3.36-.89,6.62-1.65,9.77-2.29,3.16-.63,5.17-.93,6.03-.88.19.02.35.1.47.23.12.13.17.29.16.49-.01.19-.08.36-.22.49-.13.13-.29.2-.49.2-.48-.05-1.39.04-2.74.27-1.34.23-2.96.54-4.84.95-1.88.41-3.86.86-5.92,1.37-.91.24-1.79.47-2.63.69-2.3,9.31-3.49,15.7-3.56,19.15-.02,1.65.28,2.62.9,2.88.36.17.83.15,1.42-.05.59-.2,1.28-.58,2.07-1.13.79-.55,1.54-1.1,2.23-1.64.7-.54,1.54-1.27,2.52-2.18s1.73-1.62,2.25-2.11c.52-.49,1.21-1.16,2.07-2,.5-.5.88-.88,1.12-1.12l.61-.58c.94-.91,1.58-1.52,1.94-1.84.24-.21.42-.37.54-.47s.27-.2.45-.31.34-.16.49-.14c.14.01.28.08.4.2.17.12.26.26.29.41.02.16-.04.38-.2.67-.16.29-.32.55-.49.79-.17.24-.47.65-.9,1.22-.12.17-.28.26-.47.29-.19.02-.36-.02-.5-.14-.05-.03-.1-.06-.14-.11-.05.05-.19.19-.43.43l-.61.57c-.24.24-.61.6-1.12,1.08-1.25,1.22-2.3,2.24-3.17,3.06-.86.82-1.82,1.67-2.86,2.57s-1.95,1.61-2.72,2.14c-.77.53-1.54.96-2.3,1.31-.77.35-1.44.52-2.02.52-.38,0-.72-.07-1.01-.22-1.2-.5-1.78-1.88-1.73-4.14.05-3.53,1.18-9.77,3.38-18.72-4.85,1.37-7.58,2.35-8.21,2.95-.12.12-.28.18-.47.18s-.35-.06-.49-.2c-.13-.13-.2-.29-.2-.49s.07-.36.22-.5c.84-.81,4.02-1.98,9.54-3.49.55-2.21,1.4-5.51,2.56-9.9,1.22-4.65,2.08-7.96,2.56-9.9-2.21.58-4.15,1.18-5.81,1.8-1.67.62-3.07,1.29-4.19,1.98-1.13.7-1.79,1.37-1.98,2.02-.19.6.2,1.24,1.19,1.91.14.12.23.27.27.45.04.18,0,.35-.09.52-.14.19-.34.29-.58.29-.14,0-.28-.04-.4-.11-1.54-1.06-2.11-2.21-1.73-3.46.74-2.47,5.3-4.79,13.68-6.95.14-.6.26-1.12.36-1.55.02-.19.12-.34.29-.43.17-.1.34-.12.52-.09.18.04.32.13.43.29.11.16.14.33.09.52-.05.24-.11.54-.18.9,3.53-.87,7.18-1.57,10.94-2.11,3.77-.54,7.01-.82,9.72-.85Z"/>
      <path class="cls-1" d="m232.05,28.03c.19-.01.36.04.5.16.14.12.22.28.23.47.01.19-.04.36-.16.5-3.05,3.58-5.46,5.03-7.24,4.36-1.27-.48-1.96-2-2.05-4.57-.34.62-.86,1.67-1.58,3.13-.41.89-.68,1.45-.83,1.69-.62,1.2-1.3,1.71-2.02,1.51-.98-.24-1.46-1.62-1.44-4.14,0-.48.01-1.04.04-1.69-1.58,2.26-3.2,4.97-4.86,8.13-.29.55-.6.83-.94.83-.12,0-.23-.03-.34-.09-.11-.06-.19-.11-.25-.16s-.12-.18-.18-.4c-.06-.21-.07-.49-.04-.83.04-.34.11-.83.23-1.47s.3-1.43.54-2.34c.77-3.07,1.69-5.82,2.77-8.24.07-.19.2-.32.38-.4.18-.07.36-.07.54.02.18.08.3.22.36.4s.05.35-.02.52c-1.2,2.71-2.18,5.72-2.95,9.04,1.44-2.54,2.93-4.88,4.46-7.02.34-.48.71-.65,1.12-.5.29.1.46.29.5.59.05.3.06.89.04,1.78-.02.74-.04,1.36-.04,1.84,0,1.27.13,2.17.4,2.7.14-.14.31-.38.5-.72.12-.24.38-.78.79-1.62.98-2.06,1.69-3.41,2.12-4.05.43-.64.88-.91,1.33-.81.5.12.76.65.76,1.58-.02,2.35.36,3.68,1.15,4,.48.17,1.21-.05,2.2-.67.98-.61,2.15-1.71,3.49-3.29.12-.14.28-.22.47-.23Z"/>
      <path class="cls-1" d="m242.67,28.1c.19-.04.37,0,.52.11.16.11.25.26.27.45.02.19-.01.36-.11.5-2.71,3.79-5.18,6.48-7.42,8.06-.89.62-1.76.94-2.63.94-.67,0-1.26-.18-1.76-.54-.29-.22-.55-.5-.77-.87-.23-.36-.43-.86-.59-1.51s-.2-1.5-.09-2.56c.11-1.05.38-2.25.81-3.6v-.04c.67-2.18,1.49-3.91,2.45-5.18.96-1.27,1.82-1.92,2.59-1.95.55-.02.91.22,1.08.72.26.7-.05,1.68-.94,2.95-.89,1.27-2.2,2.64-3.92,4.11-.29.94-.49,1.8-.61,2.59-.12.79-.16,1.42-.13,1.89.04.47.12.88.25,1.22.13.35.25.59.36.74.11.14.22.26.34.36.72.53,1.64.38,2.77-.43,2.11-1.49,4.46-4.05,7.06-7.7.12-.14.28-.23.47-.27Zm-6.98-4.66c-.84.53-1.67,1.67-2.48,3.42,1.39-1.39,2.22-2.53,2.48-3.42Z"/>
      <path class="cls-1" d="m256.76,28.07c.18-.06.35-.05.52.04.17.09.29.22.36.4s.06.36-.04.52c-.65,1.39-1.38,2.82-2.2,4.29-.82,1.46-1.71,2.95-2.68,4.45s-1.94,2.72-2.9,3.67c-.96.95-1.78,1.42-2.45,1.42-.17,0-.32-.04-.47-.11-.98-.38-1.3-1.87-.94-4.46.34-2.42,1.22-5.86,2.66-10.29-.02,0-.04,0-.05.02-.01.01-.03.02-.05.02-.53.36-.97.64-1.31.83-.35.19-.82.41-1.4.65-.59.24-1.15.35-1.67.32-.53-.02-1.02-.19-1.48-.5-.91-.65-1.38-1.55-1.4-2.7-.02-1.15.41-2.41,1.3-3.78.55-.86,1.22-1.62,2-2.27.78-.65,1.45-.79,2-.43.34.19.53.5.59.94.06.43-.15,1.27-.63,2.5-.48,1.24-1.28,2.85-2.41,4.84.74.1,1.97-.42,3.67-1.55.31-.21.55-.37.7-.45.16-.08.34-.17.54-.27.2-.1.38-.13.52-.11.14.02.29.08.43.18.36.29.42.79.18,1.51-2.4,7.44-3.35,11.95-2.84,13.54.05.1.08.17.11.22.19.02.49-.13.88-.47.4-.34.89-.86,1.48-1.58.59-.72,1.22-1.58,1.91-2.59.68-1.01,1.44-2.24,2.27-3.71.83-1.46,1.63-3.03,2.39-4.68.1-.19.23-.32.41-.38Zm-13.99-2.43c-.22.84-.17,1.51.14,2.02,1.75-3.05,2.69-5.11,2.81-6.19-.29.17-.62.44-.99.83-.37.38-.76.88-1.15,1.49-.4.61-.67,1.23-.81,1.85Z"/>
      <path class="cls-1" d="m271.14,27.83c.19-.02.36.03.5.16.14.13.23.29.25.49.02.19-.04.36-.18.5-4.66,5.42-7.32,8.55-7.99,9.4-.41.53-.8,1.04-1.19,1.55.34,1.37.36,2.69.07,3.96-.29,1.27-.7,2.36-1.22,3.28-.53.91-1.15,1.66-1.87,2.23-.67.58-1.3.86-1.87.86-.36,0-.66-.12-.9-.36-1.27-1.22.16-4.64,4.28-10.26-.26-.91-.68-1.8-1.26-2.66-1.2-1.8-2.09-3.3-2.66-4.5s-.84-2.29-.79-3.28c.05-.96.31-1.82.77-2.59.47-.77,1.1-1.39,1.89-1.87.67-.41,1.38-.65,2.12-.72.74-.07,1.43.04,2.05.32.17.1.28.23.34.41.06.18.05.36-.04.52-.08.17-.22.28-.4.34-.18.06-.35.05-.52-.02-.86-.41-1.81-.3-2.84.32-1.25.74-1.91,1.86-1.98,3.35-.05.79.2,1.73.76,2.83.55,1.09,1.37,2.46,2.45,4.09.46.7.83,1.4,1.12,2.12.19-.24.4-.5.61-.79.67-.84,3.35-3.98,8.03-9.43.12-.14.28-.23.47-.25Zm-11.2,19.01c1.06-1.61,1.52-3.37,1.4-5.29-1.01,1.44-1.82,2.72-2.43,3.85-.61,1.13-.98,1.94-1.12,2.43s-.17.83-.13,1.03c.22-.02.54-.21.97-.56.43-.35.86-.83,1.3-1.46Z"/>
      <path class="cls-1" d="m282.66,28.27c.19-.02.37.03.52.14.16.12.25.28.27.47.02.19-.02.36-.14.5-.98,1.27-2.16,2.27-3.53,2.99-1.37.72-2.65.95-3.85.68-.34.82-.8,1.46-1.4,1.93s-1.22.7-1.87.7h-.04c-.65-.02-1.22-.25-1.71-.67s-.83-1-1.03-1.75c-.31-1.18-.26-2.3.16-3.37.42-1.07,1.03-1.85,1.82-2.36.17-.12.36-.14.58-.07.22-.53.52-.94.92-1.22.4-.29.81-.4,1.24-.32.24.05.46.15.67.31.2.16.41.4.61.74.2.34.35.85.45,1.55.1.7.12,1.53.07,2.48-.02.24-.06.48-.11.72.91.19,1.93-.04,3.04-.68,1.12-.65,2.07-1.49,2.86-2.52.12-.14.28-.23.47-.25Zm-10.01,6.01c.34,0,.69-.15,1.06-.47s.68-.73.92-1.26c-1.56-.87-2.38-2.04-2.45-3.53-.48.46-.81,1.07-.99,1.84-.18.77-.17,1.44.02,2.02.26.94.74,1.4,1.44,1.4Zm2.34-3.35c.05-.58.05-1.07.02-1.49-.04-.42-.08-.76-.13-1.03-.05-.26-.11-.48-.18-.65-.07-.17-.14-.29-.2-.36-.06-.07-.1-.11-.13-.11h-.04c-.1,0-.22.08-.36.23-.14.16-.25.37-.32.63-.14.5-.12,1.02.07,1.55.19.53.61,1.01,1.26,1.44v-.22Z"/>
      <path class="cls-1" d="m295.62,28.16c.19-.05.37-.02.54.07s.28.23.32.41c.05.18.02.35-.07.52-.82,1.44-1.52,2.58-2.12,3.42s-1.21,1.5-1.84,1.98-1.24.68-1.84.61c-1.2-.14-2.15-1.44-2.84-3.89-.5-1.66-.94-2.48-1.3-2.48-.07-.02-.17,0-.31.09s-.34.3-.63.65-.61.82-.95,1.42-.8,1.49-1.37,2.66c-.56,1.18-1.17,2.57-1.82,4.18-.12.29-.34.43-.65.43-.05,0-.1-.01-.14-.04-.41-.1-.59-.35-.54-.76.24-1.97,1.14-5.63,2.7-10.98.17-.55.29-.97.36-1.26.07-.19.19-.33.36-.41s.34-.1.52-.05c.18.05.32.16.41.32s.11.35.04.54c-.05.17-.17.59-.36,1.26-.53,1.85-.94,3.29-1.22,4.32.77-1.44,1.44-2.44,2.02-2.99.58-.55,1.13-.81,1.66-.79.62.02,1.12.35,1.49.97.37.62.73,1.47,1.06,2.55.53,1.85,1.09,2.81,1.69,2.88.29.05.64-.11,1.06-.49.42-.37.87-.91,1.35-1.62.48-.71.85-1.27,1.1-1.67s.54-.92.88-1.55c.1-.17.24-.28.43-.32Z"/>
    </g>
  </g>
</svg>